<svg xmlns="http://www.w3.org/2000/svg" viewBox="0 0 300 80" width="300" height="80">
  <!-- Building Icon -->
  <g transform="translate(0, 10)">
    <!-- Main Building -->
    <rect x="0" y="15" width="25" height="40" fill="#FF6B35"/>
    <!-- Windows -->
    <rect x="3" y="20" width="5" height="5" fill="white"/>
    <rect x="10" y="20" width="5" height="5" fill="white"/>
    <rect x="17" y="20" width="5" height="5" fill="white"/>
    <rect x="3" y="28" width="5" height="5" fill="white"/>
    <rect x="10" y="28" width="5" height="5" fill="white"/>
    <rect x="17" y="28" width="5" height="5" fill="white"/>
    <rect x="3" y="36" width="5" height="5" fill="white"/>
    <rect x="10" y="36" width="5" height="5" fill="white"/>
    <rect x="17" y="36" width="5" height="5" fill="white"/>
    <!-- Door -->
    <rect x="8" y="45" width="9" height="10" fill="#1A1A1A"/>
    <!-- Side Building -->
    <rect x="22" y="25" width="15" height="30" fill="#E55A2B"/>
    <rect x="25" y="30" width="4" height="4" fill="white"/>
    <rect x="31" y="30" width="4" height="4" fill="white"/>
    <rect x="25" y="38" width="4" height="4" fill="white"/>
    <rect x="31" y="38" width="4" height="4" fill="white"/>
    <rect x="25" y="46" width="4" height="4" fill="white"/>
    <rect x="31" y="46" width="4" height="4" fill="white"/>
  </g>
  
  <!-- BULADEV Text -->
  <text x="45" y="35" font-family="Montserrat, sans-serif" font-size="32" font-weight="800" fill="#1A1A1A" letter-spacing="-1">BULA</text>
  <text x="125" y="35" font-family="Montserrat, sans-serif" font-size="32" font-weight="800" fill="#FF6B35" letter-spacing="-1">DEV</text>
  
  <!-- Tagline -->
  <text x="45" y="55" font-family="Inter, sans-serif" font-size="10" font-weight="500" fill="#666666" letter-spacing="1">BUILDING &amp; LAND DEVELOPMENT</text>
</svg>
